<?xml version="1.0" encoding="utf-8"?>
<!-- Generator: Adobe Illustrator 16.0.0, SVG Export Plug-In . SVG Version: 6.00 Build 0)  -->
<!DOCTYPE svg PUBLIC "-//W3C//DTD SVG 1.1//EN" "http://www.w3.org/Graphics/SVG/1.1/DTD/svg11.dtd">
<svg version="1.1" id="Layer_1" xmlns="http://www.w3.org/2000/svg" xmlns:xlink="http://www.w3.org/1999/xlink" x="0px" y="0px"
	 width="44px" height="22px" viewBox="0 -3.5 44 22" enable-background="new 0 -3.5 44 22" xml:space="preserve">
<path d="M2.592,14.131H0V1.622h2.592v0.435h-2.06v11.64h2.06V14.131z"/>
<path d="M41.408,1.622H44v12.509h-2.592v-0.436h2.06V2.057h-2.06V1.622z"/>
<g>
	<path fill="#EC5444" d="M22.795,16.57v-3.383h-1.578v3.383c0,0.449,0.357,0.806,0.788,0.806
		C22.439,17.376,22.795,17.02,22.795,16.57 M26.359,10.44l-0.005-7.126c-0.084-2.543-1.254-4.539-2.757-5.363
		c-0.632,1.666-2.233,2.851-4.11,2.851c-0.446,0-0.879-0.068-1.287-0.194c-0.324,0.791-0.526,1.707-0.561,2.706v7.126
		c0,0.56,0.485,1.063,1.151,1.063h6.417C25.872,11.504,26.359,11,26.359,10.44 M23.91,16.57c0,1.063-0.848,1.93-1.903,1.93
		s-1.906-0.866-1.906-1.93v-3.968h-1.246c-1.269,0-2.355-0.987-2.355-2.279V3.317c0.054-1.53,0.482-2.995,1.194-4.177
		c0.516,0.34,1.132,0.539,1.795,0.539c1.769,0,3.211-1.412,3.278-3.179c2.721,0.458,4.616,3.487,4.728,6.818l0.005,7.006
		c0,1.29-1.086,2.279-2.354,2.279H23.91V16.57z"/>
</g>
</svg>
