<?xml version="1.0" encoding="utf-8"?>
<!-- Generator: Adobe Illustrator 16.0.0, SVG Export Plug-In . SVG Version: 6.00 Build 0)  -->
<!DOCTYPE svg PUBLIC "-//W3C//DTD SVG 1.1//EN" "http://www.w3.org/Graphics/SVG/1.1/DTD/svg11.dtd">
<svg version="1.1" id="Layer_1" xmlns="http://www.w3.org/2000/svg" xmlns:xlink="http://www.w3.org/1999/xlink" x="0px" y="0px"
	 width="44px" height="15px" viewBox="0 0 44 15" enable-background="new 0 0 44 15" xml:space="preserve">
<path d="M2.592,14.131H0V1.622h2.592v0.435h-2.06v11.64h2.06V14.131z"/>
<path d="M41.408,1.622H44v12.509h-2.592v-0.436h2.06V2.057h-2.06V1.622z"/>
<g>
	<path fill="#EC5444" d="M26.499,14.396h-1.837c0.012-0.099,0.029-0.194,0.029-0.295v-1.506h1.808c1.986,0,3.601-1.61,3.601-3.599
		c0-1.985-1.614-3.597-3.601-3.597c-0.553,0-1.074,0.129-1.541,0.354l-0.729-0.729C23.395,3.128,21.508,1.8,19.303,1.8
		c-2.983,0-5.399,2.416-5.399,5.398c0,2.979,2.413,5.393,5.391,5.396v1.506c0,0.102,0.02,0.196,0.03,0.295h-0.023
		c-3.976,0-7.196-3.223-7.196-7.197c0-3.975,3.22-7.199,7.196-7.199c2.702,0,5.053,1.491,6.283,3.691
		c0.3-0.052,0.602-0.092,0.915-0.092c2.979,0,5.396,2.417,5.396,5.397C31.898,11.979,29.48,14.396,26.499,14.396"/>
	<path fill="#EC5444" d="M18.813,9.788c-0.351-0.351-0.351-0.922,0-1.271l2.546-2.546c0.35-0.35,0.92-0.35,1.272,0l2.543,2.546
		c0.352,0.35,0.352,0.921,0,1.271s-0.92,0.351-1.272,0L22.894,8.78v5.32c0,0.496-0.403,0.899-0.898,0.899
		c-0.498,0-0.901-0.403-0.901-0.899V8.78l-1.008,1.008C19.735,10.139,19.165,10.139,18.813,9.788"/>
</g>
</svg>
