<?xml version="1.0" encoding="utf-8"?>
<!-- Generator: Adobe Illustrator 16.0.0, SVG Export Plug-In . SVG Version: 6.00 Build 0)  -->
<!DOCTYPE svg PUBLIC "-//W3C//DTD SVG 1.1//EN" "http://www.w3.org/Graphics/SVG/1.1/DTD/svg11.dtd">
<svg version="1.1" id="Layer_1" xmlns="http://www.w3.org/2000/svg" xmlns:xlink="http://www.w3.org/1999/xlink" x="0px" y="0px"
	 width="44.156px" height="32.528px" viewBox="0 0 44.156 32.528" enable-background="new 0 0 44.156 32.528" xml:space="preserve">
<g>
	<path d="M2.591,23.603H0V11.094h2.591v0.435H0.532v11.64h2.059V23.603z"/>
	<path d="M41.564,11.094h2.592v12.509h-2.592v-0.435h2.06v-11.64h-2.06V11.094z"/>
</g>
<path fill="#EC5444" d="M34.295,22.942c-0.272-0.156-4.305-3.468-4.578-4.15c-0.273-0.684-0.479-3.964-0.479-3.826
	c0.273-0.41,3.006-0.684,3.006-2.87S23.567,0,21.926,0c-1.638,0-7.447,6.354-9.088,9.635c-1.64,3.28,1.026,4.169,1.436,4.579
	c0,0-0.478,2.664-0.478,3.963c0,0.479-1.846,2.803-3.963,4.441c0.886,0.752,3.894,0,4.168-0.477c-0.205,3.006,2.8,7.652,3.074,7.789
	c0.273,0.137,0.342-0.137,0.549-1.23c-0.071,0.205,1.023,2.871,2.459,3.828c0.886-0.207,1.228-2.188,1.228-2.188
	s-0.135,1.229,0.957,2.188c1.641-0.139,2.256-4.102,2.256-4.102s0.137,1.299,0.273,1.846c2.527-0.41,3.963-6.287,4.168-7.33
	C32.655,24.222,34.569,23.097,34.295,22.942 M18.803,17.29c0,0.709-0.449,1.289-0.998,1.289c-0.547,0-0.996-0.58-0.996-1.289v-3.887
	c0-0.709,0.449-1.29,0.996-1.29c0.549,0,0.998,0.581,0.998,1.29V17.29z M24.442,17.29c0,0.709-0.449,1.289-0.998,1.289
	c-0.547,0-0.996-0.58-0.996-1.289v-3.887c0-0.709,0.449-1.29,0.996-1.29c0.549,0,0.998,0.581,0.998,1.29V17.29z"/>
</svg>
