<?xml version="1.0" encoding="utf-8"?>
<!-- Generator: Adobe Illustrator 16.0.0, SVG Export Plug-In . SVG Version: 6.00 Build 0)  -->
<!DOCTYPE svg PUBLIC "-//W3C//DTD SVG 1.1//EN" "http://www.w3.org/Graphics/SVG/1.1/DTD/svg11.dtd">
<svg version="1.1" id="Layer_1" xmlns="http://www.w3.org/2000/svg" xmlns:xlink="http://www.w3.org/1999/xlink" x="0px" y="0px"
	 width="24.488px" height="32.527px" viewBox="0 0 24.488 32.527" enable-background="new 0 0 24.488 32.527" xml:space="preserve">
<path fill="#808080" d="M24.461,22.942c-0.271-0.155-4.305-3.468-4.578-4.149c-0.272-0.685-0.479-3.964-0.479-3.826
	c0.273-0.409,3.007-0.684,3.007-2.869C22.411,9.91,13.734,0,12.093,0c-1.638,0-7.447,6.354-9.088,9.635
	c-1.64,3.28,1.026,4.17,1.436,4.579c0,0-0.478,2.664-0.478,3.963c0,0.479-1.846,2.804-3.963,4.441c0.886,0.752,3.894,0,4.168-0.478
	c-0.205,3.006,2.8,7.651,3.074,7.789c0.272,0.137,0.342-0.138,0.549-1.229c-0.071,0.204,1.022,2.87,2.459,3.827
	c0.886-0.207,1.228-2.188,1.228-2.188s-0.135,1.229,0.957,2.188c1.643-0.139,2.256-4.103,2.256-4.103s0.139,1.3,0.272,1.847
	c2.527-0.41,3.963-6.287,4.168-7.33C22.822,24.222,24.736,23.097,24.461,22.942z M11.292,18.597L7.37,14.676l2.121-2.121
	l1.801,1.801l3.705-3.705l2.121,2.121L11.292,18.597z"/>
</svg>
