<?xml version="1.0" encoding="utf-8"?>
<!-- Generator: Adobe Illustrator 16.0.0, SVG Export Plug-In . SVG Version: 6.00 Build 0)  -->
<!DOCTYPE svg PUBLIC "-//W3C//DTD SVG 1.1//EN" "http://www.w3.org/Graphics/SVG/1.1/DTD/svg11.dtd">
<svg version="1.1" id="Layer_1" xmlns="http://www.w3.org/2000/svg" xmlns:xlink="http://www.w3.org/1999/xlink" x="0px" y="0px"
	 width="46px" height="46px" viewBox="0 0 46 46" enable-background="new 0 0 46 46" xml:space="preserve">
<g id="Glass">
	<path fill="#E6E6E6" d="M19.048,20.974c0,3.296,2.682,5.975,5.976,5.975c3.295,0,5.976-2.679,5.976-5.975
		C31,17.68,28.319,15,25.024,15C21.73,15,19.048,17.68,19.048,20.974 M25.024,25.39c-2.435,0-4.415-1.982-4.415-4.416
		c0-2.437,1.98-4.416,4.415-4.416c2.435,0,4.416,1.979,4.416,4.416C29.44,23.408,27.459,25.39,25.024,25.39"/>
	<path fill="#E6E6E6" d="M15.228,28.219l3.576-3.576c0.303-0.303,0.798-0.303,1.102,0l1.449,1.45c0.303,0.305,0.303,0.799,0,1.102
		l-3.575,3.576c-0.304,0.306-0.799,0.306-1.103,0l-1.45-1.45C14.924,29.018,14.924,28.521,15.228,28.219"/>
</g>
</svg>
