<?xml version="1.0" encoding="utf-8"?>
<!-- Generator: Adobe Illustrator 16.0.0, SVG Export Plug-In . SVG Version: 6.00 Build 0)  -->
<!DOCTYPE svg PUBLIC "-//W3C//DTD SVG 1.1//EN" "http://www.w3.org/Graphics/SVG/1.1/DTD/svg11.dtd">
<svg version="1.1" id="Layer_1" xmlns="http://www.w3.org/2000/svg" xmlns:xlink="http://www.w3.org/1999/xlink" x="0px" y="0px"
	 width="800px" height="600px" viewBox="0 0 800 600" enable-background="new 0 0 800 600" xml:space="preserve">
<g>
	<path fill="#FFFFFF" d="M529.346,498.304h-52.772c0.267-2.825,0.8-5.598,0.8-8.529v-43.23h51.973
		c57.144,0,103.52-46.376,103.52-103.52c0-57.157-46.376-103.467-103.52-103.467c-15.885,0-30.917,3.745-44.297,10.182
		l-21.003-20.909c-23.987-54.585-78.199-92.739-141.633-92.739c-85.769,0-155.253,69.458-155.253,155.213
		c0,85.675,69.378,155.08,154.986,155.24v43.23c0,2.932,0.587,5.704,0.854,8.529h-0.64c-114.288,0-206.933-92.699-206.933-207
		c0-114.274,92.645-206.986,206.933-206.986c77.666,0,145.311,42.884,180.706,106.145c8.582-1.506,17.271-2.652,26.279-2.652
		c85.662,0,155.227,69.484,155.227,155.213C684.572,428.793,615.088,498.304,529.346,498.304 M308.341,365.785
		c-10.102-10.128-10.102-26.492,0-36.567l73.188-73.175c10.074-10.155,26.493-10.155,36.567,0l73.136,73.175
		c10.128,10.075,10.128,26.439,0,36.567c-10.075,10.075-26.493,10.075-36.567,0l-28.999-28.998v152.987
		c0,14.286-11.62,25.906-25.853,25.906c-14.286,0-25.907-11.62-25.907-25.906V336.787l-28.972,28.998
		C334.833,375.86,318.469,375.86,308.341,365.785"/>
</g>
</svg>
