<?xml version="1.0" encoding="utf-8"?>
<!-- Generator: Adobe Illustrator 16.0.0, SVG Export Plug-In . SVG Version: 6.00 Build 0)  -->
<!DOCTYPE svg PUBLIC "-//W3C//DTD SVG 1.1//EN" "http://www.w3.org/Graphics/SVG/1.1/DTD/svg11.dtd">
<svg version="1.1" id="Layer_1" xmlns="http://www.w3.org/2000/svg" xmlns:xlink="http://www.w3.org/1999/xlink" x="0px" y="0px"
	 width="46px" height="46px" viewBox="0 0 46 46" enable-background="new 0 0 46 46" xml:space="preserve">
<g id="Upload">
	<path fill="#E6E6E6" d="M27.772,30.354h-1.947c0.01-0.104,0.029-0.207,0.029-0.314v-1.604h1.918c2.108,0,3.819-1.721,3.819-3.84
		c0-2.121-1.711-3.839-3.819-3.839c-0.586,0-1.141,0.14-1.635,0.378l-0.774-0.775c-0.885-2.024-2.885-3.44-5.226-3.44
		c-3.165,0-5.729,2.576-5.729,5.758c0,3.179,2.56,5.753,5.719,5.759v1.604c0,0.107,0.021,0.211,0.031,0.314h-0.023
		c-4.217,0-7.635-3.437-7.635-7.677c0-4.239,3.418-7.678,7.635-7.678c2.866,0,5.362,1.591,6.667,3.937
		c0.316-0.055,0.638-0.098,0.97-0.098c3.161,0,5.728,2.577,5.728,5.758S30.937,30.354,27.772,30.354 M19.618,25.44
		c-0.373-0.375-0.373-0.983,0-1.357l2.7-2.714c0.372-0.376,0.978-0.376,1.35,0l2.698,2.714c0.374,0.374,0.374,0.982,0,1.357
		c-0.372,0.374-0.978,0.374-1.35,0l-1.069-1.075v5.675c0,0.528-0.429,0.96-0.954,0.96c-0.527,0-0.956-0.432-0.956-0.96v-5.675
		l-1.069,1.075C20.596,25.814,19.992,25.814,19.618,25.44"/>
</g>
</svg>
