<?xml version="1.0" encoding="utf-8"?>
<!-- Generator: Adobe Illustrator 16.0.0, SVG Export Plug-In . SVG Version: 6.00 Build 0)  -->
<!DOCTYPE svg PUBLIC "-//W3C//DTD SVG 1.1//EN" "http://www.w3.org/Graphics/SVG/1.1/DTD/svg11.dtd">
<svg version="1.1" id="Layer_1" xmlns="http://www.w3.org/2000/svg" xmlns:xlink="http://www.w3.org/1999/xlink" x="0px" y="0px"
	 width="46px" height="46px" viewBox="0 0 46 46" enable-background="new 0 0 46 46" xml:space="preserve">
<path fill="#E6E6E6" d="M16.049,14.232c0.454,0,0.824-0.368,0.824-0.824c0-0.454-0.37-0.824-0.824-0.824
	c-0.457,0-0.824,0.37-0.824,0.824C15.226,13.864,15.592,14.232,16.049,14.232"/>
<path fill="#E6E6E6" d="M22.959,14.232c0.453,0,0.823-0.368,0.823-0.824c0-0.454-0.37-0.824-0.823-0.824
	c-0.454,0-0.824,0.37-0.824,0.824C22.136,13.864,22.505,14.232,22.959,14.232"/>
<path fill="#E6E6E6" d="M29.868,14.232c0.458,0,0.826-0.368,0.826-0.824c0-0.454-0.368-0.824-0.826-0.824
	c-0.453,0-0.821,0.37-0.821,0.824C29.047,13.864,29.415,14.232,29.868,14.232"/>
<path fill="#E6E6E6" d="M18.019,23.977H16.65v-7.554c0-0.332-0.268-0.602-0.601-0.602c-0.332,0-0.603,0.27-0.603,0.602v7.554h-1.205
	c-0.787,0-1.423,0.638-1.423,1.423c0,0.786,0.637,1.423,1.423,1.423h1.205v5.99c0,0.334,0.271,0.603,0.603,0.603
	c0.333,0,0.601-0.269,0.601-0.603v-5.99h1.368c0.784,0,1.422-0.637,1.422-1.423C19.44,24.614,18.802,23.977,18.019,23.977"/>
<path fill="#E6E6E6" d="M25.008,28.557h-1.446V16.423c0-0.332-0.269-0.602-0.602-0.602c-0.334,0-0.602,0.27-0.602,0.602v12.134
	h-1.125c-0.785,0-1.421,0.637-1.421,1.423c0,0.785,0.636,1.423,1.421,1.423h1.125v1.409c0,0.335,0.268,0.604,0.602,0.604
	c0.332,0,0.602-0.269,0.602-0.604v-1.409h1.446c0.785,0,1.424-0.638,1.424-1.423C26.432,29.193,25.793,28.557,25.008,28.557"/>
<path fill="#E6E6E6" d="M31.758,19.396h-1.285v-2.973c0-0.332-0.271-0.602-0.604-0.602c-0.332,0-0.6,0.27-0.6,0.602v2.973h-1.287
	c-0.785,0-1.421,0.637-1.421,1.424c0,0.785,0.636,1.422,1.421,1.422h1.287v10.571c0,0.334,0.268,0.603,0.6,0.603
	c0.334,0,0.604-0.269,0.604-0.603V22.242h1.285c0.787,0,1.423-0.637,1.423-1.422C33.181,20.033,32.545,19.396,31.758,19.396"/>
</svg>
