<?xml version="1.0" encoding="utf-8"?>
<!-- Generator: Adobe Illustrator 16.0.0, SVG Export Plug-In . SVG Version: 6.00 Build 0)  -->
<!DOCTYPE svg PUBLIC "-//W3C//DTD SVG 1.1//EN" "http://www.w3.org/Graphics/SVG/1.1/DTD/svg11.dtd">
<svg version="1.1" id="Layer_1" xmlns="http://www.w3.org/2000/svg" xmlns:xlink="http://www.w3.org/1999/xlink" x="0px" y="0px"
	 width="46px" height="46px" viewBox="0 0 46 46" enable-background="new 0 0 46 46" xml:space="preserve">
<path id="Anchor" fill-rule="evenodd" clip-rule="evenodd" fill="#E6E6E6" d="M24.045,16.553c-0.004-0.543-0.443-0.986-0.986-0.998
	c-0.563-0.007-1.019,0.441-1.02,1.007c-0.003,0.565,0.453,1.03,1.008,1.025C23.602,17.583,24.05,17.121,24.045,16.553
	 M24.018,29.786c1.711-0.268,3.446-1.786,3.802-3.307c-0.204-0.08-0.416-0.143-0.613-0.239c-0.491-0.243-0.612-0.754-0.227-1.133
	c0.838-0.822,1.691-1.626,2.564-2.409c0.41-0.367,0.962-0.193,1.065,0.341c0.219,1.151,0.399,2.311,0.563,3.47
	c0.065,0.484-0.322,0.807-0.82,0.738c-0.218-0.03-0.426-0.107-0.64-0.159c-1.262,3.008-3.428,4.788-6.745,4.777
	c-3.291-0.011-5.441-1.795-6.694-4.777c-0.184,0.05-0.367,0.11-0.552,0.146c-0.57,0.114-0.967-0.197-0.892-0.773
	c0.151-1.146,0.335-2.292,0.548-3.427c0.101-0.529,0.668-0.701,1.074-0.334c0.858,0.775,1.708,1.562,2.537,2.372
	c0.415,0.407,0.282,0.95-0.253,1.187c-0.186,0.085-0.382,0.148-0.574,0.218c0.41,1.603,2.385,3.272,3.956,3.301v-0.471
	c-0.003-3.343-0.009-6.685,0.001-10.027c0.001-0.322-0.102-0.497-0.377-0.665c-0.932-0.577-1.34-1.683-1.043-2.706
	c0.307-1.072,1.237-1.775,2.339-1.775c1.101-0.002,2.034,0.701,2.35,1.771c0.3,1.01-0.118,2.129-1.03,2.72
	c-0.208,0.131-0.366,0.23-0.364,0.529c0.013,3.446,0.007,6.894,0.007,10.339C23.999,29.579,24.008,29.668,24.018,29.786"/>
</svg>
