<?xml version="1.0" encoding="utf-8"?>
<!-- Generator: Adobe Illustrator 16.0.0, SVG Export Plug-In . SVG Version: 6.00 Build 0)  -->
<!DOCTYPE svg PUBLIC "-//W3C//DTD SVG 1.1//EN" "http://www.w3.org/Graphics/SVG/1.1/DTD/svg11.dtd">
<svg version="1.1" id="Layer_1" xmlns="http://www.w3.org/2000/svg" xmlns:xlink="http://www.w3.org/1999/xlink" x="0px" y="0px"
	 width="46px" height="46px" viewBox="0 0 46 46" enable-background="new 0 0 46 46" xml:space="preserve">
<g id="Skull">
	<path fill="#E6E6E6" d="M20.18,23.459v0.625c0,0.692,0.396,1.028,0.973,1.286c0.588,0.264,1.24,0.378,1.92,0.378
		c0.681,0,1.33-0.114,1.922-0.378c0.575-0.258,0.972-0.594,0.972-1.286v-0.625H25.84c-0.176,0.42-0.382,0.754-0.845,0.96
		c-0.592,0.265-1.241,0.378-1.922,0.378c-0.68,0-1.332-0.113-1.92-0.378c-0.463-0.206-0.669-0.54-0.846-0.96H20.18z"/>
	<path fill="#E6E6E6" d="M27.56,16.619c-0.246-0.513-0.605-0.975-1.044-1.363c-0.438-0.389-0.965-0.702-1.547-0.919
		C24.387,14.12,23.744,14,23.073,14c-0.673,0-1.312,0.12-1.896,0.336c-0.582,0.217-1.106,0.53-1.546,0.919
		c-0.442,0.388-0.797,0.85-1.043,1.363c-0.247,0.515-0.383,1.077-0.383,1.667c0,0.592,0.203,1.911,0.383,2.445
		c0.16,0.474,0.465,1.085,0.897,1.361c0.143,0.093,0.554,0.219,0.694,0.316c0.419,0.454,0.396,1.027,0.973,1.285
		c0.588,0.266,1.24,0.377,1.92,0.377c0.681,0,1.33-0.112,1.922-0.377c0.575-0.257,0.551-0.831,0.972-1.285
		c0.14-0.098,0.551-0.223,0.694-0.316c0.433-0.276,0.735-0.887,0.897-1.361c0.181-0.534,0.38-1.854,0.38-2.445
		C27.938,17.696,27.806,17.133,27.56,16.619 M22.12,20.114c0,0.541-0.497,0.978-1.11,0.978s-1.112,0.081-1.112-0.459v-0.35
		c0-0.54,0.498-0.979,1.112-0.979s1.11-0.077,1.11,0.463V20.114z M23.648,22.2c-0.039,0.061-0.124,0.098-0.245,0.098
		c0,0-0.196-0.039-0.33-0.039c-0.135,0-0.33,0.039-0.33,0.039c-0.121,0-0.207-0.037-0.246-0.098
		c-0.041-0.063-0.036-0.144,0.026-0.238l0.164-0.38l0.164-0.381c0.061-0.093,0.141-0.138,0.221-0.138s0.158,0.044,0.218,0.138
		l0.167,0.381l0.164,0.38C23.683,22.056,23.69,22.137,23.648,22.2 M26.25,20.632c0,0.541-0.497,0.459-1.11,0.459
		c-0.614,0-1.112-0.437-1.112-0.978v-0.348c0-0.54,0.498-0.463,1.112-0.463c0.613,0,1.11,0.439,1.11,0.979V20.632z"/>
	<path fill="#E6E6E6" d="M28.676,29.858c-0.292-0.13-0.647-0.03-0.794,0.229l-3.524-1.581L27.28,27.2
		c0.26,0.342,0.777,0.472,1.205,0.28c0.461-0.209,0.649-0.708,0.411-1.117c-0.162-0.28-0.483-0.442-0.817-0.449
		c0.004-0.087-0.013-0.176-0.061-0.258c-0.146-0.258-0.503-0.36-0.795-0.23c-0.293,0.133-0.407,0.446-0.26,0.702L22.999,27.9
		l-3.962-1.772c0.148-0.256,0.031-0.569-0.259-0.702c-0.291-0.13-0.648-0.027-0.797,0.23c-0.047,0.082-0.064,0.171-0.06,0.258
		c-0.335,0.007-0.654,0.169-0.818,0.449c-0.235,0.409-0.051,0.908,0.414,1.117c0.429,0.191,0.942,0.062,1.204-0.28l2.925,1.307
		l-3.525,1.581c-0.147-0.26-0.503-0.359-0.796-0.229c-0.29,0.127-0.406,0.442-0.259,0.701c0.06,0.102,0.153,0.178,0.261,0.226
		c-0.136,0.232-0.151,0.512-0.007,0.761c0.234,0.408,0.803,0.571,1.265,0.363c0.429-0.19,0.616-0.632,0.455-1.021l3.96-1.771
		l3.961,1.771c-0.159,0.39,0.025,0.831,0.456,1.021c0.463,0.205,1.03,0.045,1.265-0.363c0.144-0.249,0.131-0.53-0.006-0.761
		c0.107-0.048,0.2-0.124,0.261-0.226C29.084,30.301,28.968,29.985,28.676,29.858"/>
</g>
</svg>
