<?xml version="1.0" encoding="utf-8"?>
<!-- Generator: Adobe Illustrator 16.0.0, SVG Export Plug-In . SVG Version: 6.00 Build 0)  -->
<!DOCTYPE svg PUBLIC "-//W3C//DTD SVG 1.1//EN" "http://www.w3.org/Graphics/SVG/1.1/DTD/svg11.dtd">
<svg version="1.1" id="Layer_1" xmlns="http://www.w3.org/2000/svg" xmlns:xlink="http://www.w3.org/1999/xlink" x="0px" y="0px"
	 width="38px" height="17px" viewBox="0 0 38 17" enable-background="new 0 0 38 17" xml:space="preserve">
<path fill="#B3B3B3" d="M19.001,3.08c-2.209,0-4.003,1.793-4.003,4.002c0,2.211,3.5,6.58,3.5,6.58c0.275,0.344,0.727,0.344,1.003,0
	c0,0,3.5-4.369,3.5-6.58C23.002,4.873,21.209,3.08,19.001,3.08 M19.001,8.416c-0.739,0-1.334-0.596-1.334-1.334
	c0-0.736,0.595-1.334,1.334-1.334c0.733,0,1.333,0.598,1.333,1.334C20.334,7.82,19.735,8.416,19.001,8.416"/>
</svg>
