<?xml version="1.0" encoding="utf-8"?>
<!-- Generator: Adobe Illustrator 16.0.0, SVG Export Plug-In . SVG Version: 6.00 Build 0)  -->
<!DOCTYPE svg PUBLIC "-//W3C//DTD SVG 1.1//EN" "http://www.w3.org/Graphics/SVG/1.1/DTD/svg11.dtd">
<svg version="1.1" id="Layer_1" xmlns="http://www.w3.org/2000/svg" xmlns:xlink="http://www.w3.org/1999/xlink" x="0px" y="0px"
	 width="38px" height="17px" viewBox="0 0 38 17" enable-background="new 0 0 38 17" xml:space="preserve">
<path fill="#B3B3B3" d="M24.161,7.96l-5.705,5.705c-0.336,0.338-0.885,0.337-1.221,0l-3.396-3.396c-0.338-0.338-0.338-0.885,0-1.222
	l5.706-5.705c0.188-0.19,0.444-0.269,0.694-0.245l-0.019-0.016l2.97,0.658c0.125,0.021,0.428,0.118,0.549,0.557l0.611,2.727
	C24.478,7.335,24.416,7.708,24.161,7.96 M22.735,4.769c-0.353-0.352-0.922-0.352-1.272,0c-0.353,0.352-0.353,0.92,0,1.271
	c0.351,0.353,0.92,0.353,1.272,0C23.088,5.689,23.088,5.121,22.735,4.769"/>
</svg>
