<?xml version="1.0" encoding="utf-8"?>
<!-- Generator: Adobe Illustrator 16.0.0, SVG Export Plug-In . SVG Version: 6.00 Build 0)  -->
<!DOCTYPE svg PUBLIC "-//W3C//DTD SVG 1.1//EN" "http://www.w3.org/Graphics/SVG/1.1/DTD/svg11.dtd">
<svg version="1.1" id="Layer_1" xmlns="http://www.w3.org/2000/svg" xmlns:xlink="http://www.w3.org/1999/xlink" x="0px" y="0px"
	 width="38px" height="17px" viewBox="0 0 38 17" enable-background="new 0 0 38 17" xml:space="preserve">
<path fill="#B3B3B3" d="M27.138,12.023c-0.122-0.203-0.288-0.377-0.495-0.508c-0.118-0.074-0.313-0.189-0.57-0.342
	c-1.81-1.064-6.666-3.85-6.667-3.851l-0.153-0.075V6.273c0-0.601,1.154-0.763,1.154-1.87c0-0.869-0.816-1.322-1.572-1.322
	c-0.904,0-1.41,0.56-1.41,0.56l0.648,0.791c0,0,0.316-0.291,0.641-0.291c0.256,0,0.479,0.169,0.479,0.398
	c0,0.566-1.06,0.729-1.06,1.639v1.076l-0.189,0.078c0,0-1.389,0.865-2.896,1.815c-0.754,0.473-1.539,0.969-2.195,1.387
	c-0.327,0.209-0.623,0.4-0.868,0.559c-0.246,0.16-0.438,0.289-0.567,0.379c-0.238,0.164-0.42,0.344-0.553,0.549
	s-0.208,0.441-0.207,0.672c0,0.188,0.049,0.367,0.126,0.52c0.118,0.227,0.295,0.396,0.494,0.516
	c0.187,0.109,0.396,0.178,0.623,0.188h0.008h0.044c0.113,0,0.29,0,0.518,0c1.772,0,6.691,0.006,10.063,0.006
	c1.646,0,2.92-0.002,3.293-0.006c0.22-0.002,0.413-0.025,0.595-0.076c0.269-0.072,0.512-0.211,0.683-0.418
	c0.082-0.102,0.146-0.219,0.187-0.338s0.057-0.24,0.057-0.355C27.343,12.461,27.259,12.227,27.138,12.023 M26.232,12.729
	c-0.031,0.021-0.158,0.078-0.418,0.08c-0.358,0.002-1.64,0.004-3.283,0.004c-3.372,0-8.289-0.004-10.063-0.004h-0.512h-0.009h-0.004
	c-0.033-0.002-0.103-0.025-0.14-0.061c-0.021-0.016-0.032-0.033-0.036-0.043c-0.005-0.012-0.005-0.012-0.005-0.014
	c0-0.004-0.002-0.021,0.031-0.074s0.108-0.139,0.25-0.238c0.111-0.076,0.299-0.203,0.543-0.357c0.844-0.549,2.332-1.49,3.605-2.287
	c0.637-0.402,1.221-0.767,1.645-1.033c0.213-0.133,0.386-0.24,0.506-0.314c0.018-0.012,0.037-0.022,0.051-0.031h0.589
	c0.041,0.023,0.09,0.052,0.146,0.084c0.614,0.353,2.16,1.24,3.646,2.097c0.743,0.432,1.473,0.854,2.062,1.197
	c0.295,0.172,0.555,0.322,0.764,0.447c0.209,0.123,0.369,0.221,0.457,0.275c0.044,0.025,0.1,0.08,0.134,0.139
	c0.034,0.055,0.047,0.109,0.047,0.127C26.236,12.725,26.234,12.727,26.232,12.729"/>
</svg>
