<?xml version="1.0" encoding="utf-8"?>
<!-- Generator: Adobe Illustrator 16.0.0, SVG Export Plug-In . SVG Version: 6.00 Build 0)  -->
<!DOCTYPE svg PUBLIC "-//W3C//DTD SVG 1.1//EN" "http://www.w3.org/Graphics/SVG/1.1/DTD/svg11.dtd">
<svg version="1.1" id="Layer_1" xmlns="http://www.w3.org/2000/svg" xmlns:xlink="http://www.w3.org/1999/xlink" x="0px" y="0px"
	 width="38px" height="17px" viewBox="0 0 38 17" enable-background="new 0 0 38 17" xml:space="preserve">
<g>
	<path fill="#B3B3B3" d="M15.938,8.265c0.914-1.971,2.229-3.715,3.841-5.129C19.524,3.099,19.265,3.081,19,3.081
		c-1.705,0-3.224,0.788-4.218,2.016C15.051,6.196,15.439,7.259,15.938,8.265"/>
	<path fill="#B3B3B3" d="M17.672,5.729c2.164-0.193,4.332,0.07,6.363,0.764c-0.698-1.75-2.281-3.051-4.197-3.348
		C19.02,3.927,18.294,4.796,17.672,5.729"/>
	<path fill="#B3B3B3" d="M17.266,11.034c-0.557-0.791-1.033-1.625-1.43-2.496L15.82,8.509l0.002-0.002
		c-0.488-1.076-0.85-2.205-1.078-3.361c-0.729,0.922-1.164,2.088-1.164,3.354c0,0.688,0.129,1.346,0.363,1.951
		C15.031,10.769,16.145,10.964,17.266,11.034"/>
	<path fill="#B3B3B3" d="M20.734,5.966c1.25,1.777,2.104,3.785,2.521,5.889c0.729-0.922,1.164-2.088,1.164-3.355
		c0-0.688-0.129-1.346-0.363-1.949C22.969,6.231,21.855,6.036,20.734,5.966"/>
	<path fill="#B3B3B3" d="M20.328,11.269c-0.946,0.086-1.893,0.082-2.827-0.006H17.41l-0.005-0.008
		c-1.173-0.117-2.325-0.369-3.44-0.748c0.701,1.75,2.284,3.049,4.196,3.348C18.98,13.071,19.708,12.204,20.328,11.269"/>
	<path fill="#B3B3B3" d="M22.062,8.735c-0.408,0.879-0.896,1.713-1.453,2.492l-0.021,0.035h-0.004
		c-0.686,0.955-1.479,1.826-2.362,2.6c0.254,0.037,0.515,0.057,0.778,0.057c1.707,0,3.224-0.787,4.217-2.016
		C22.948,10.802,22.561,9.741,22.062,8.735"/>
</g>
</svg>
